<svg width="48" height="48" viewBox="0 0 48 48" fill="none" xmlns="http://www.w3.org/2000/svg">
<path fill-rule="evenodd" clip-rule="evenodd" d="M26.2041 18.0107C27.2128 18.113 28 18.9643 28 20V36L27.9893 36.2041C27.887 37.2128 27.0357 38 26 38H22C20.9643 38 20.113 37.2128 20.0107 36.2041L20 36V20C20 18.8954 20.8954 18 22 18H26L26.2041 18.0107ZM22 36H26V20H22V36Z" fill="black"/>
<path fill-rule="evenodd" clip-rule="evenodd" d="M24 8C26.2091 8 28 9.79086 28 12C28 14.2091 26.2091 16 24 16C21.7909 16 20 14.2091 20 12C20 9.79086 21.7909 8 24 8ZM24 10C22.8954 10 22 10.8954 22 12C22 13.1046 22.8954 14 24 14C25.1046 14 26 13.1046 26 12C26 10.8954 25.1046 10 24 10Z" fill="black"/>
<path fill-rule="evenodd" clip-rule="evenodd" d="M42 4C43.1046 4 44 4.89543 44 6V24C44 35.0457 35.0457 44 24 44H6C4.89543 44 4 43.1046 4 42V24C4 12.9543 12.9543 4 24 4H42ZM24 6C14.0589 6 6 14.0589 6 24V42H24C33.9411 42 42 33.9411 42 24V6H24Z" fill="black"/>
</svg>
