<svg width="48" height="48" viewBox="0 0 48 48" fill="none" xmlns="http://www.w3.org/2000/svg">
<path d="M4.76367 20.0283C5.11157 19.7409 5.62306 19.7173 6 20L20.4004 30.7998C20.478 30.8581 20.5441 30.9261 20.5996 31H27.4004C27.4559 30.9261 27.522 30.8581 27.5996 30.7998L42 20C42.3767 19.7175 42.8875 19.7414 43.2354 20.0283C43.674 20.1342 44 20.5288 44 21V43C43.9999 43.5176 43.6066 43.9438 43.1025 43.9951L43 44H5C4.9654 44 4.93116 43.9986 4.89746 43.9951C4.42708 43.9472 4.05285 43.5729 4.00488 43.1025L4 43V21C4 20.5292 4.32549 20.1345 4.76367 20.0283ZM28.2793 32.959C28.1906 32.9848 28.0971 33 28 33H20C19.9026 33 19.8087 32.985 19.7197 32.959L7.66504 42H40.334L28.2793 32.959ZM6 40.749L18.167 31.624L6 22.499V40.749ZM29.832 31.624L42 40.749V22.499L29.832 31.624Z" fill="black"/>
<path d="M29 25.9999C29.5522 25.9999 29.9999 26.4477 30 26.9999C30 27.5522 29.5523 27.9999 29 27.9999H19C18.4477 27.9999 18 27.5522 18 26.9999C18.0001 26.4477 18.4478 25.9999 19 25.9999H29Z" fill="black"/>
<path d="M34 19.9999C34.5522 19.9999 34.9999 20.4477 35 20.9999C35 21.5522 34.5523 21.9999 34 21.9999H14C13.4477 21.9999 13 21.5522 13 20.9999C13.0001 20.4477 13.4478 19.9999 14 19.9999H34Z" fill="black"/>
<path d="M34 13.9999C34.5522 13.9999 34.9999 14.4477 35 14.9999C35 15.5522 34.5523 15.9999 34 15.9999H14C13.4477 15.9999 13 15.5522 13 14.9999C13.0001 14.4477 13.4478 13.9999 14 13.9999H34Z" fill="black"/>
<path fill-rule="evenodd" clip-rule="evenodd" d="M37 7.99988C38.6568 7.99988 39.9999 9.34309 40 10.9999V16.8993L43.2256 19.3993C43.7142 19.7781 43.9999 20.3622 44 20.9804V41.9999C44 43.0355 43.2128 43.8869 42.2041 43.9891L42 43.9999H6C4.96435 43.9999 4.113 43.2127 4.01074 42.204L4 41.9999V20.9804C4.00008 20.3622 4.28584 19.7781 4.77441 19.3993L8 16.8993V10.9999C8.00008 9.34309 9.34319 7.99988 11 7.99988H19.4834L22.7744 5.4491C23.4955 4.89034 24.5045 4.89034 25.2256 5.4491L28.5166 7.99988H37ZM25.251 7.99988L24 7.03016L22.749 7.99988H25.251ZM40 23.0516C40 23.9514 40 24 40 24L29 32.5L27 33H20.5C20.5 33 19.1746 32.2126 18.6387 31.7743L8 24C8 24 8 23.9514 8 23.0516V19.4296L6 20.9804V41.9999H42V20.9804L40 19.4296V23.0516ZM11 9.99988C10.4478 9.99988 10.0001 10.4477 10 10.9999V22C10 22.2999 10 23 10 23L20 30.5L20.5 31H27.5L28 30.5L38 23C38 23 38 22.2999 38 22V10.9999C37.9999 10.4477 37.5522 9.99988 37 9.99988H11Z" fill="black"/>
</svg>
