<svg width="48" height="48" viewBox="0 0 48 48" fill="none" xmlns="http://www.w3.org/2000/svg">
<path d="M39 37C39.5523 37 40 37.4477 40 38C40 38.5523 39.5523 39 39 39H9C8.44772 39 8 38.5523 8 38C8 37.4477 8.44772 37 9 37H39Z" fill="black"/>
<path d="M39 31C39.5523 31 40 31.4477 40 32C40 32.5523 39.5523 33 39 33H9C8.44772 33 8 32.5523 8 32C8 31.4477 8.44772 31 9 31H39Z" fill="black"/>
<path d="M39 25C39.5523 25 40 25.4477 40 26C40 26.5523 39.5523 27 39 27H9C8.44772 27 8 26.5523 8 26C8 25.4477 8.44772 25 9 25H39Z" fill="black"/>
<path fill-rule="evenodd" clip-rule="evenodd" d="M20 8C21.1046 8 22 8.89543 22 10V20C22 21.0357 21.2128 21.887 20.2041 21.9893L20 22H10L9.7959 21.9893C8.85435 21.8938 8.1062 21.1457 8.01074 20.2041L8 20V10C8 8.89543 8.89543 8 10 8H20ZM10 20H20V10H10V20Z" fill="black"/>
<path d="M39 19C39.5523 19 40 19.4477 40 20C40 20.5523 39.5523 21 39 21H25C24.4477 21 24 20.5523 24 20C24 19.4477 24.4477 19 25 19H39Z" fill="black"/>
<path d="M39 14C39.5523 14 40 14.4477 40 15C40 15.5523 39.5523 16 39 16H25C24.4477 16 24 15.5523 24 15C24 14.4477 24.4477 14 25 14H39Z" fill="black"/>
<path d="M39 9C39.5523 9 40 9.44772 40 10C40 10.5523 39.5523 11 39 11H25C24.4477 11 24 10.5523 24 10C24 9.44772 24.4477 9 25 9H39Z" fill="black"/>
<path fill-rule="evenodd" clip-rule="evenodd" d="M42.2041 4.01074C43.2128 4.113 44 4.96435 44 6V42L43.9893 42.2041C43.8938 43.1457 43.1457 43.8938 42.2041 43.9893L42 44H6C4.96435 44 4.113 43.2128 4.01074 42.2041L4 42V6C4 4.89543 4.89543 4 6 4H42L42.2041 4.01074ZM6 42H42V6H6V42Z" fill="black"/>
</svg>
