<svg width="48" height="48" viewBox="0 0 48 48" fill="none" xmlns="http://www.w3.org/2000/svg">
<path fill-rule="evenodd" clip-rule="evenodd" d="M38 8C39.1046 8 40 8.89543 40 10V28C40 29.1046 39.1046 30 38 30H10C8.89543 30 8 29.1046 8 28V10C8 8.89543 8.89543 8 10 8H38ZM10 28H38V10H10V28Z" fill="black"/>
<path fill-rule="evenodd" clip-rule="evenodd" d="M42 4C43.1046 4 44 4.89543 44 6V32C44 33.1046 43.1046 34 42 34H29V39H42C43.1046 39 44 39.8954 44 41V43C44 44.1046 43.1046 45 42 45H6C4.89543 45 4 44.1046 4 43V41C4 39.8954 4.89543 39 6 39H19V34H6C4.89543 34 4 33.1046 4 32V6C4 4.89543 4.89543 4 6 4H42ZM6 43H42V41H6V43ZM21 39H27V34H21V39ZM6 32H42V6H6V32Z" fill="black"/>
</svg>
