<svg width="100" height="100" viewBox="0 0 100 100" fill="none" xmlns="http://www.w3.org/2000/svg">
<g id="pattern-tile" clip-path="url(#clip0_5_8)">
<path id="Star 4" d="M0.704404 -15.7421C2.90095 -18.9343 7.89906 -17.4508 7.99834 -13.5772L8.11106 -9.17886C8.15546 -7.44652 9.31028 -5.93979 10.9715 -5.44669L15.1894 -4.19475C18.9041 -3.09215 19.0377 2.11977 15.3843 3.4112L11.2361 4.87756C9.60232 5.45511 8.52619 7.01901 8.57059 8.75135L8.68331 13.1496C8.78258 17.0233 3.86703 18.7609 1.50985 15.6854L-1.1666 12.1934C-2.22076 10.818 -4.04066 10.2778 -5.67449 10.8553L-9.82269 12.3217C-13.476 13.6131 -16.6476 9.4751 -14.4511 6.28292L-11.957 2.65837C-10.9747 1.23078 -11.0233 -0.66698 -12.0775 -2.04237L-14.7539 -5.53441C-17.1111 -8.60989 -14.1557 -12.9049 -10.441 -11.8023L-6.2231 -10.5504C-4.56183 -10.0573 -2.77198 -10.69 -1.78966 -12.1176L0.704404 -15.7421Z" fill="black"/>
<path id="Star 5" d="M100.271 83.8245C102.468 80.6324 107.466 82.1159 107.565 85.9895L107.678 90.3878C107.722 92.1202 108.877 93.6269 110.538 94.12L114.756 95.3719C118.471 96.4745 118.604 101.686 114.951 102.978L110.803 104.444C109.169 105.022 108.093 106.586 108.137 108.318L108.25 112.716C108.349 116.59 103.434 118.328 101.077 115.252L98.4001 111.76C97.3459 110.385 95.526 109.844 93.8922 110.422L89.744 111.888C86.0906 113.18 82.919 109.042 85.1156 105.85L87.6096 102.225C88.592 100.797 88.5433 98.8997 87.4892 97.5243L84.8127 94.0323C82.4556 90.9568 85.411 86.6617 89.1257 87.7643L93.3436 89.0163C95.0048 89.5094 96.7947 88.8767 97.777 87.4491L100.271 83.8245Z" fill="black"/>
<path id="Star 6" d="M0.271054 83.8245C2.4676 80.6324 7.46571 82.1159 7.56499 85.9895L7.67771 90.3878C7.72211 92.1202 8.87693 93.6269 10.5382 94.12L14.7561 95.3719C18.4708 96.4745 18.6044 101.686 14.951 102.978L10.8028 104.444C9.16897 105.022 8.09284 106.586 8.13724 108.318L8.24996 112.716C8.34923 116.59 3.43368 118.328 1.0765 115.252L-1.59995 111.76C-2.65411 110.385 -4.47401 109.844 -6.10784 110.422L-10.256 111.888C-13.9094 113.18 -17.081 109.042 -14.8844 105.85L-12.3904 102.225C-11.408 100.797 -11.4567 98.8997 -12.5108 97.5243L-15.1873 94.0323C-17.5444 90.9568 -14.589 86.6617 -10.8743 87.7643L-6.65645 89.0163C-4.99518 89.5094 -3.20533 88.8767 -2.22301 87.4491L0.271054 83.8245Z" fill="black"/>
<path id="Star 8" d="M47.0362 43.8638C47.7923 41.4505 51.2077 41.4505 51.9638 43.8638V43.8638C52.3013 44.9407 53.3065 45.6738 54.4351 45.6738V45.6738C56.9636 45.6738 58.0705 48.8901 56.0511 50.4116L55.8996 50.5258C55.0029 51.2013 54.6283 52.3679 54.964 53.4392L55.0433 53.6924C55.7901 56.0758 53.0407 58.0153 51.0459 56.5123V56.5123C50.1307 55.8227 48.8693 55.8227 47.9541 56.5123V56.5123C45.9593 58.0153 43.2099 56.0758 43.9567 53.6924L44.036 53.4392C44.3717 52.3679 43.9971 51.2013 43.1004 50.5258L42.9489 50.4116C40.9295 48.8901 42.0364 45.6738 44.5649 45.6738V45.6738C45.6935 45.6738 46.6987 44.9407 47.0362 43.8638V43.8638Z" fill="black"/>
<path id="Star 7" d="M100.271 -16.1755C102.468 -19.3676 107.466 -17.8841 107.565 -14.0105L107.678 -9.61218C107.722 -7.87984 108.877 -6.37311 110.538 -5.88001L114.756 -4.62807C118.471 -3.52547 118.604 1.68645 114.951 2.97789L110.803 4.44424C109.169 5.02179 108.093 6.5857 108.137 8.31803L108.25 12.7163C108.349 16.59 103.434 18.3276 101.077 15.2521L98.4001 11.76C97.3459 10.3847 95.526 9.84447 93.8922 10.422L89.744 11.8884C86.0906 13.1798 82.919 9.04178 85.1156 5.8496L87.6096 2.22505C88.592 0.797463 88.5433 -1.1003 87.4892 -2.47569L84.8127 -5.96773C82.4556 -9.04321 85.411 -13.3383 89.1257 -12.2357L93.3436 -10.9837C95.0048 -10.4906 96.7947 -11.1233 97.777 -12.5509L100.271 -16.1755Z" fill="black"/>
</g>
<defs>
<clipPath id="clip0_5_8">
<rect width="100" height="100" fill="white"/>
</clipPath>
</defs>
</svg>
